# xmcd CD database file
#
# Track frame offsets:
#	150
#	14683
#	33255
#
# Disc length: 615 seconds
#
# Revision: 0
# Processed by: cddbd v1.5.2PL0 Copyright (c) Steve Scherf et al.
# Submitted via: CDex 2.16
#
DISCID=1c026503
DTITLE=Olga Roman  - Eso y lo Contrario
DYEAR=2005
DGENRE=Jazz
TTITLE0=Eso y lo Contrario
TTITLE1=Como Si Nada.
TTITLE2=Ahora Ya Ves
EXTD=YEAR: 2005
EXTT0=
EXTT1=
EXTT2=
PLAYORDER=
